# AST/ASF file generated using VICON BodyLanguage
# -----------------------------------------------
:version 1.10
:name VICON
:units
  mass 1.0
  length 0.45
  angle deg
:documentation
   .ast/.asf automatically generated from VICON data using
   VICON BodyBuilder and BodyLanguage model FoxedUp or BRILLIANT.MOD
:root
   order TX TY TZ RX RY RZ
   axis XYZ
   position 0 0 0  
   orientation 0 0 0 
:bonedata
  begin
     id 1 
     name lhipjoint
     direction 0.627457 -0.725269 0.283342 
     length 2.53237 
     axis 0 0 0  XYZ
  end
  begin
     id 2 
     name lfemur
     direction 0.34202 -0.939693 0  
     length 7.32496  
     axis 0 0 20  XYZ
    dof rx ry rz
    limits (-160.0 20.0)
           (-70.0 70.0)
           (-60.0 70.0)
  end
  begin
     id 3 
     name ltibia
     direction 0.34202 -0.939693 0   
     length 7.69674   
     axis 0 0 20   XYZ
    dof rx
    limits (-10.0 170.0)
  end
  begin
     id 4 
     name lfoot
     direction 0.127289 -0.349722 0.928166   
     length 1.8612   
     axis -90 7.62852e-016 20   XYZ
    dof rx rz
    limits (-45.0 90.0)
           (-70.0 20.0)
  end
  begin
     id 5 
     name ltoes
     direction 1.53561e-011 -4.21864e-011 1   
     length 0.925608   
     axis -90 7.62852e-016 20   XYZ
    dof rx
    limits (-90.0 20.0)
  end
  begin
     id 6 
     name rhipjoint
     direction -0.609094 -0.738725 0.288599   
     length 2.48624  
     axis 0 0 0  XYZ 
  end
  begin
     id 7 
     name rfemur
     direction -0.34202 -0.939693 0   
     length 7.44259   
     axis 0 0 -20   XYZ
    dof rx ry rz
    limits (-160.0 20.0)
           (-70.0 70.0)
           (-70.0 60.0)
  end
  begin
     id 8 
     name rtibia
     direction -0.34202 -0.939693 0   
     length 7.7781   
     axis 0 0 -20   XYZ
    dof rx
    limits (-10.0 170.0)
 end
 begin
     id 9 
     name rfoot
     direction -0.107015 -0.294021 0.949789   
     length 2.14741  
     axis -90 -7.62852e-016 -20   XYZ
    dof rx rz
    limits (-45.0 90.0)
           (-20.0 70.0)
  end
  begin
     id 10 
     name rtoes
     direction -1.53497e-011 -4.21924e-011 1   
     length 1.0706   
     axis -90 -7.62852e-016 -20   XYZ
    dof rx
    limits (-90.0 20.0)
  end
  begin
     id 11 
     name lowerback
     direction -0.0142066 0.998112 -0.0597545   
     length 1.86627   
     axis 0 0 0   XYZ
    dof rx ry rz
    limits (-20.0 45.0)
           (-30.0 30.0)
           (-30.0 30.0)
  end
  begin
     id 12 
     name upperback
     direction 0.00547294 0.999744 0.0219437   
     length 1.86272   
     axis 0 0 0   XYZ
    dof rx ry rz
    limits (-20.0 45.0)
           (-30.0 30.0)
           (-30.0 30.0)
  end
  begin
     id 13 
     name thorax
     direction 0.0116162 0.998704 0.0495538   
     length 1.8703   
     axis 0 0 0   XYZ
    dof rx ry rz
    limits (-20.0 45.0)
           (-30.0 30.0)
           (-30.0 30.0)
  end
  begin
     id 14 
     name lowerneck
     direction -0.0106574 0.998739 0.0490586   
     length 1.8074   
     axis 0 0 0   XYZ
    dof rx ry rz
    limits (-20.0 45.0)
           (-30.0 30.0)
           (-30.0 30.0)
  end
  begin
     id 15 
     name upperneck
     direction 0.030527 0.976587 -0.212944   
     length 1.80681   
     axis 0 0 0   XYZ
    dof rx ry rz
    limits (-20.0 45.0)
           (-30.0 30.0)
           (-30.0 30.0)
  end
  begin
     id 16
     name head
     direction 0.00869225 0.997035 -0.0764531  
     length 1.8313  
     axis 0 0 0   XYZ
    dof rx ry rz
    limits (-20.0 45.0)
           (-30.0 30.0)
           (-30.0 30.0)
  end
  begin
     id 17 
     name lclavicle
     direction 0.915958 0.399447 0.0382386  
     length 3.78965  
     axis 0 0 0   XYZ
    dof ry rz
    limits (-20.0 10.0)
           (0.0 20.0)
  end
  begin
     id 18 
     name lhumerus
     direction 1 -4.48967e-011 3.19303e-027   
     length 4.78095   
     axis -180 -30 -90   XYZ
    dof rx ry rz
    limits (-60.0 90.0)
           (-90.0 90.0)
           (-90.0 90.0)
  end
  begin
     id 19
     name lradius
     direction 1 -4.48967e-011 -3.77974e-027   
     length 3.58615   
     axis -180 -30 -90   XYZ
    dof rx
    limits (-10.0 170.0)
  end
  begin
     id 20
     name lwrist
     direction 1 -4.48927e-011 1.2807e-027   
     length 1.79307   
     axis 1.91374e-015 90 90   XYZ
    dof ry
    limits (-180.0 0.0)
 end
  begin
     id 21 
     name lhand
     direction 1 -4.49036e-011 2.5614e-027   
     length 0.659812   
     axis -1.63439e-015 90 90   XYZ
    dof rx rz
    limits (-90.0 90.0)
           (-45.0 45.0)
  end
  begin
     id 22 
     name lfingers
     direction 1 -4.49052e-011 5.1228e-027   
     length 0.531957   
     axis -3.26879e-015 90 90   XYZ
    dof rx
    limits (0.0 90.0)
  end
  begin
     id 23
     name lthumb
     direction 0.707107 -6.35012e-011 0.707107   
     length 0.763787   
     axis -90 45 2.85299e-015   XYZ
    dof rx rz
    limits (-45.0 45.0)
           (-45.0 45.0)
  end
  begin
     id 24 
     name rclavicle
     direction -0.895351 0.435135 0.0948887   
     length 3.70497  
     axis 0 0 0   XYZ 
    dof ry rz
    limits (-10.0 20.0)
           (-20.0 0.0)
  end
  begin
     id 25 
     name rhumerus
     direction -1 -4.48971e-011 2.38946e-027  
     length 4.48913   
     axis -180 30 90   XYZ
    dof rx ry rz
    limits (-90.0 60.0)
           (-90.0 90.0)
           (-90.0 90.0)
  end
  begin
     id 26 
     name rradius
     direction -1 -4.4895e-011 4.38668e-027   
     length 3.7051   
     axis -180 30 90   XYZ
    dof rx
    limits (-10.0 170.0)
  end
  begin
     id 27 
     name rwrist
     direction -1 -4.49007e-011 1.2807e-027   
     length 1.85255   
     axis 1.91374e-015 -90 -90   XYZ
    dof ry
    limits (-180.0 0.0)
  end
  begin
     id 28
     name rhand
     direction -1 -4.48851e-011 2.5614e-027   
     length 0.449136   
     axis -1.63439e-015 -90 -90   XYZ
    dof rx rz
    limits (-90.0 90.0)
           (-45.0 45.0)
  end
  begin
     id 29
     name rfingers
     direction -1 -4.49128e-011 5.1228e-027   
     length 0.362105   
     axis -3.26879e-015 -90 -90   XYZ
    dof rx
    limits (0.0 90.0)
  end
  begin
     id 30
     name rthumb
     direction -0.707107 -6.34851e-011 0.707107   
     length 0.519912   
     axis -90 -45 -2.85299e-015   XYZ
    dof rx rz
    limits (-45.0 45.0)
           (-45.0 45.0)
  end
:hierarchy
  begin
    root lhipjoint rhipjoint lowerback
    lhipjoint lfemur
    lfemur ltibia
    ltibia lfoot
    lfoot ltoes
    rhipjoint rfemur
    rfemur rtibia
    rtibia rfoot
    rfoot rtoes
    lowerback upperback
    upperback thorax
    thorax lowerneck lclavicle rclavicle
    lowerneck upperneck
    upperneck head
    lclavicle lhumerus
    lhumerus lradius
    lradius lwrist
    lwrist lhand lthumb
    lhand lfingers
    rclavicle rhumerus
    rhumerus rradius
    rradius rwrist
    rwrist rhand rthumb
    rhand rfingers
  end

#!OML:ASF I:\Actors\actors\Patient Classification 2\Patient 1\Session 1\actor1.ASF
:FULLY-SPECIFIED
:DEGREES
33
root -0.932489 18.1463 5.53898 -1.19454 -2.96487 -4.37439
lowerback 3.06693 0.571698 2.04372
upperback -0.98318 0.878271 1.19727
thorax -2.71806 0.413504 0.0371904
lowerneck -11.7202 -0.969681 -1.02038
upperneck 23.4461 -1.63436 1.98128
head 9.32918 -0.641133 0.666475
rclavicle 1.09518e-014 -3.97569e-016
rhumerus -47.0509 -4.07298 -86.0807
rradius 40.8158
rwrist 17.7113
rhand -6.68142 -28.1507
rfingers 7.12502
rthumb 19.1772 -57.2252
lclavicle 1.09518e-014 -3.97569e-016
lhumerus -44.3708 10.1443 85.7439
lradius 39.3786
lwrist -10.2596
lhand -6.46509 -29.1926
lfingers 7.12502
lthumb 19.3852 -0.138849
rfemur 0 0 0
rtibia 0
rfoot 0 0
rtoes 0
lfemur 18.3163 -8.01673 -13.0826
ltibia -17.5439
lfoot -4.74812 21.4457
ltoes -6.65592
34
root -0.932091 18.1467 5.53938 -1.17807 -2.97943 -4.39554
lowerback 3.05641 0.587849 2.10234
upperback -0.988342 0.90169 1.18485
thorax -2.71608 0.424062 -0.00953148
lowerneck -11.7211 -0.973318 -1.02691
upperneck 23.429 -1.64144 1.99719
head 9.32366 -0.643312 0.672196
rclavicle 3.31722e-015 -1.98785e-014
rhumerus -47.0636 -4.14906 -86.07
rradius 40.8325
rwrist 17.6981
rhand -6.75403 -28.0848
rfingers 7.12502
rthumb 19.1074 -57.1662
lclavicle 3.31722e-015 -1.98785e-014
lhumerus -44.3557 10.0443 85.7972
lradius 39.4742
lwrist -10.3122
lhand -6.43473 -28.7526
lfingers 7.12502
lthumb 19.4144 0.298182
rfemur 0 0 0
rtibia 0
rfoot 0 0
rtoes 0
lfemur 18.3036 -8.06286 -13.0664
ltibia -17.5264
lfoot -4.78677 21.4867
ltoes -6.58113
35
root -0.931914 18.1474 5.5399 -1.16802 -2.9829 -4.39403
lowerback 3.05039 0.588648 2.11888
upperback -0.994948 0.903153 1.1755
thorax -2.71908 0.42437 -0.0284355
lowerneck -11.7346 -0.981013 -1.04729
upperneck 23.4555 -1.65807 2.0368
head 9.33632 -0.648353 0.687393
rclavicle -2.23322e-014 -1.47101e-014
rhumerus -47.0659 -4.16638 -86.0756
rradius 40.8204
rwrist 17.7045
rhand -6.95099 -27.9147
rfingers 7.12502
rthumb 18.918 -57.0147
lclavicle -2.23322e-014 -1.47101e-014
lhumerus -44.3608 9.99343 85.8322
lradius 39.5838
lwrist -10.3604
lhand -6.36488 -28.3007
lfingers 7.12502
lthumb 19.4816 0.743348
rfemur 0 0 0
rtibia 0
rfoot 0 0
rtoes 0
lfemur 18.2877 -8.13795 -13.0775
ltibia -17.5051
lfoot -4.88148 21.5511
ltoes -6.37178
36
root -0.932464 18.1478 5.54097 -1.17733 -2.9808 -4.36909
lowerback 3.05151 0.577668 2.07555
upperback -0.993023 0.886713 1.17522
thorax -2.71859 0.416927 -0.00359745
lowerneck -11.756 -0.975831 -1.0455
upperneck 23.4855 -1.6543 2.04678
head 9.35089 -0.645099 0.690962
rclavicle -7.96381e-015 -8.54774e-015
rhumerus -47.0412 -4.10856 -86.0975
rradius 40.7857
rwrist 17.6757
rhand -7.44054 -27.6505
rfingers 7.12502
rthumb 18.4471 -56.7958
lclavicle -7.96381e-015 -8.54774e-015
lhumerus -44.3655 10.1134 85.7291
lradius 39.3866
lwrist -10.1571
lhand -6.39101 -29.0864
lfingers 7.12502
lthumb 19.4564 -0.0398847
rfemur 0 0 0
rtibia 0
rfoot 0 0
rtoes 0
lfemur 18.2838 -8.18402 -13.1133
ltibia -17.4824
lfoot -4.91721 21.6018
ltoes -6.35031
37
root -0.93283 18.1478 5.54174 -1.19187 -2.99181 -4.39105
lowerback 3.067 0.571107 2.0766
upperback -0.998105 0.879128 1.19535
thorax -2.73297 0.41316 0.0166927
lowerneck -11.7354 -0.962432 -1.03923
upperneck 23.4828 -1.63171 2.02547
head 9.3454 -0.636501 0.685222
rclavicle 3.01904e-015 -1.64991e-014
rhumerus -47.0391 -4.05908 -86.0994
rradius 40.7711
rwrist 17.6287
rhand -7.92928 -27.4414
rfingers 7.12502
rthumb 17.9769 -56.6306
lclavicle 3.01904e-015 -1.64991e-014
lhumerus -44.3833 10.073 85.7591
lradius 39.4271
lwrist -10.0639
lhand -6.32916 -28.9955
lfingers 7.12502
lthumb 19.5159 0.0450087
rfemur 0 0 0
rtibia 0
rfoot 0 0
rtoes 0
lfemur 18.2921 -8.18923 -13.0951
ltibia -17.4591
lfoot -4.88825 21.62
ltoes -6.65413
38
root -0.932811 18.1475 5.54271 -1.2041 -3.00443 -4.42016
lowerback 3.06999 0.567069 2.09875
upperback -0.992988 0.875126 1.21431
thorax -2.72944 0.411002 0.0239775
lowerneck -11.7302 -0.952127 -1.0473
upperneck 23.4727 -1.613 2.01618
head 9.3405 -0.629586 0.685525
rclavicle 7.42958e-015 3.97569e-016
rhumerus -47.0287 -4.04105 -86.0911
rradius 40.7611
rwrist 17.6209
rhand -8.13019 -27.3825
rfingers 7.12502
rthumb 17.7836 -56.5893
lclavicle 7.42958e-015 3.97569e-016
lhumerus -44.3703 9.98976 85.8115
lradius 39.4456
lwrist -9.93825
lhand -6.3415 -28.9286
lfingers 7.12502
lthumb 19.504 0.113183
rfemur 0 0 0
rtibia 0
rfoot 0 0
rtoes 0
lfemur 18.3099 -8.17226 -13.0656
ltibia -17.455
lfoot -4.84528 21.6227
ltoes -6.97042
39
root -0.933122 18.1478 5.54375 -1.19881 -2.99567 -4.43136
lowerback 3.04964 0.562295 2.11659
upperback -0.981153 0.868504 1.21171
thorax -2.7056 0.407628 0.0119472
lowerneck -11.7833 -0.941086 -1.03805
upperneck 23.488 -1.60301 2.03036
head 9.3558 -0.622123 0.689847
rclavicle 1.53934e-014 -2.04748e-014
rhumerus -46.9961 -4.07085 -86.0945
rradius 40.7578
rwrist 17.744
rhand -8.43516 -26.8851
rfingers 7.12502
rthumb 17.4901 -56.1183
lclavicle 1.53934e-014 -2.04748e-014
lhumerus -44.331 10.0382 85.7664
lradius 39.4249
lwrist -9.97426
lhand -6.30483 -28.9462
lfingers 7.12502
lthumb 19.5393 0.0919447
rfemur 0 0 0
rtibia 0
rfoot 0 0
rtoes 0
lfemur 18.3089 -8.14875 -13.0456
ltibia -17.4713
lfoot -4.80536 21.5927
ltoes -7.06025
40
root -0.932978 18.1476 5.54407 -1.1769 -2.97672 -4.42344
lowerback 3.03971 0.56219 2.11339
upperback -0.989667 0.86806 1.20945
thorax -2.70879 0.407377 0.0115156
lowerneck -11.8301 -0.941689 -1.01736
upperneck 23.5203 -1.60686 2.02243
head 9.37581 -0.622459 0.683111
rclavicle -1.78906e-015 -1.64991e-014
rhumerus -47.0007 -4.11562 -86.0698
rradius 40.7663
rwrist 17.8734
rhand -8.39282 -26.4405
rfingers 7.12502
rthumb 17.5308 -55.6701
lclavicle -1.78906e-015 -1.64991e-014
lhumerus -44.3087 10.1733 85.692
lradius 39.3813
lwrist -10.1338
lhand -6.21479 -28.9703
lfingers 7.12502
lthumb 19.6259 0.0590583
rfemur 0 0 0
rtibia 0
rfoot 0 0
rtoes 0
lfemur 18.2915 -8.15527 -13.0477
ltibia -17.4953
lfoot -4.80732 21.577
ltoes -6.73672
41
root -0.932214 18.1467 5.54429 -1.16731 -2.96412 -4.38615
lowerback 3.05047 0.562413 2.0632
upperback -1.00165 0.867228 1.22129
thorax -2.72809 0.407711 0.0516269
lowerneck -11.8131 -0.950776 -0.989117
upperneck 23.5009 -1.60928 1.95644
head 9.36502 -0.628495 0.65533
rclavicle 5.65915e-015 -1.5704e-014
rhumerus -47.0223 -4.10813 -86.0157
rradius 40.7494
rwrist 17.7943
rhand -7.37099 -27.1342
rfingers 7.12502
rthumb 18.514 -56.2732
lclavicle 5.65915e-015 -1.5704e-014
lhumerus -44.3142 10.268 85.6812
lradius 39.3708
lwrist -10.2418
lhand -6.15549 -28.9489
lfingers 7.12502
lthumb 19.6829 0.0746096
rfemur 0 0 0
rtibia 0
rfoot 0 0
rtoes 0
lfemur 18.2938 -8.16082 -13.0901
ltibia -17.5236
lfoot -4.80348 21.58
ltoes -6.61418
42
root -0.931997 18.1454 5.54564 -1.18001 -2.9576 -4.38566
lowerback 3.05949 0.559961 2.05419
upperback -1.00508 0.864207 1.23121
thorax -2.73703 0.406359 0.0669162
lowerneck -11.7823 -0.941002 -0.97725
upperneck 23.4846 -1.59563 1.94696
head 9.35308 -0.622372 0.651694
rclavicle 1.30204e-014 2.38542e-015
rhumerus -47.0363 -4.08494 -85.9976
rradius 40.734
rwrist 17.7101
rhand -6.68471 -27.7806
rfingers 7.12502
rthumb 19.174 -56.8554
lclavicle 1.30204e-014 2.38542e-015
lhumerus -44.353 10.2457 85.6929
lradius 39.3975
lwrist -10.2322
lhand -6.15151 -28.9237
lfingers 7.12502
lthumb 19.6867 0.099404
rfemur 0 0 0
rtibia 0
rfoot 0 0
rtoes 0
lfemur 18.3263 -8.15715 -13.0942
ltibia -17.5461
lfoot -4.79488 21.5613
ltoes -6.73085
43
root -0.932508 18.1444 5.54753 -1.18108 -2.95105 -4.41658
lowerback 3.04737 0.558506 2.08124
upperback -1.01511 0.863423 1.23843
thorax -2.74029 0.405495 0.0593127
lowerneck -11.7578 -0.922873 -0.989489
upperneck 23.4976 -1.5788 1.99167
head 9.35317 -0.61079 0.671221
rclavicle -1.09394e-014 1.98785e-016
rhumerus -47.0571 -4.09028 -85.9887
rradius 40.7358
rwrist 17.7602
rhand -6.64702 -27.7992
rfingers 7.12502
rthumb 19.2103 -56.8704
lclavicle -1.09394e-014 1.98785e-016
lhumerus -44.3991 10.1869 85.6983
lradius 39.4197
lwrist -10.1871
lhand -6.22709 -28.9476
lfingers 7.12502
lthumb 19.614 0.0829276
rfemur 0 0 0
rtibia 0
rfoot 0 0
rtoes 0
lfemur 18.3377 -8.1485 -13.0543
ltibia -17.5484
lfoot -4.82349 21.5276
ltoes -6.53055
44
root -0.933091 18.145 5.54895 -1.17352 -2.94874 -4.4282
lowerback 3.04244 0.562614 2.08537
upperback -1.02769 0.869334 1.24299
thorax -2.75041 0.408271 0.061366
lowerneck -11.7214 -0.923203 -0.968998
upperneck 23.4777 -1.58102 1.98154
head 9.33912 -0.611443 0.664076
rclavicle -3.95085e-015 -1.23246e-014
rhumerus -47.0826 -4.10846 -85.972
rradius 40.7345
rwrist 17.8085
rhand -6.74396 -27.7
rfingers 7.12502
rthumb 19.1171 -56.7805
lclavicle -3.95085e-015 -1.23246e-014
lhumerus -44.4051 10.1014 85.7888
lradius 39.6453
lwrist -10.2997
lhand -6.18431 -28.0821
lfingers 7.12502
lthumb 19.6552 0.944278
rfemur 0 0 0
rtibia 0
rfoot 0 0
rtoes 0
lfemur 18.3265 -8.12385 -13.0323
ltibia -17.5376
lfoot -4.83717 21.5172
ltoes -6.44333
45
root -0.933217 18.1466 5.54986 -1.17074 -2.94798 -4.41956
lowerback 3.06387 0.570129 2.08631
upperback -1.04741 0.880189 1.22999
thorax -2.78243 0.413197 0.0465778
lowerneck -11.7014 -0.931669 -0.933141
upperneck 23.4758 -1.60041 1.97967
head 9.33474 -0.617666 0.655204
rclavicle 1.18028e-015 -3.18055e-015
rhumerus -47.1184 -4.14574 -85.9788
rradius 40.7246
rwrist 17.8348
rhand -6.89256 -27.5783
rfingers 7.12502
rthumb 18.9741 -56.6728
lclavicle 1.18028e-015 -3.18055e-015
lhumerus -44.4002 10.1168 85.7212
lradius 39.5106
lwrist -10.253
lhand -6.17063 -28.5359
lfingers 7.12502
lthumb 19.6683 0.489072
rfemur 0 0 0
rtibia 0
rfoot 0 0
rtoes 0
lfemur 18.3221 -8.13018 -13.0433
ltibia -17.5272
lfoot -4.8601 21.5457
ltoes -6.45276
